<svg xmlns="http://www.w3.org/2000/svg" width="18" height="15" viewBox="0 0 18 15">
  <path id="Path" d="M18,1.776a7.231,7.231,0,0,1-2.121.6A3.778,3.778,0,0,0,17.5.277a7.288,7.288,0,0,1-2.345.919,3.645,3.645,0,0,0-2.7-1.2,3.768,3.768,0,0,0-3.6,4.649A10.4,10.4,0,0,1,1.253.693,3.851,3.851,0,0,0,2.4,5.749,3.608,3.608,0,0,1,.724,5.275,3.769,3.769,0,0,0,3.685,9.036,3.612,3.612,0,0,1,2.017,9.1a3.709,3.709,0,0,0,3.45,2.629A7.294,7.294,0,0,1,0,13.3,10.267,10.267,0,0,0,5.661,15c6.857,0,10.73-5.938,10.5-11.264A7.627,7.627,0,0,0,18,1.776Z" opacity="0.318"/>
</svg>
